# xmcd CD database file
#
# Track frame offsets:
#	150
#	12573
#	27713
#	40182
#	55065
#	68413
#	82055
#	95937
#	108881
#	123469
#	137585
#	149485
#	163121
#	177716
#	189792
#	204071
#	216830
#	228312
#	239556
#	252193
#	265632
#	278125
#	290909
#	304867
#	317037
#	330285
#
# Disc length: 4572 seconds
#
# Revision: 0
# Processed by: cddbd v1.5.2PL0 Copyright (c) Steve Scherf et al.
# Submitted via: CDex 1.70beta2
#
DISCID=8311da1a
DTITLE=The Carter Family (Country Folk) - My Home's Across The Blue Ridge Mountains
DYEAR=2007
DGENRE=Country
TTITLE0=Hello Stranger
TTITLE1=Never let the Devil get the upper hand of you
TTITLE2=When this evening sun goes down
TTITLE3=Jim Blake's message
TTITLE4=Honey in the rock
TTITLE5=Look how this world has made a change
TTITLE6=The little girl that played upon my knee
TTITLE7=You better let that liar alone
TTITLE8=Farewell Nellie
TTITLE9=The only girl I ever cared about
TTITLE10=Goodbye to the plains
TTITLE11=My home's across the blue ridge mountains
TTITLE12=Dark haired true lover
TTITLE13=He never came back
TTITLE14=Who do you cry, little darling?
TTITLE15=You tied a love knot in my heart
TTITLE16=Lonesome homesick blues
TTITLE17=Dark and stormy weather
TTITLE18=In the valley of Shenandoah
TTITLE19=The girl on the greenbriar shore
TTITLE20=Something got a hold of me
TTITLE21=Fifty miles of Elbow Room
TTITLE22=Keep on the firing line
TTITLE23=Waves on the sea
TTITLE24=Rambling boy
TTITLE25=You're gonna be sorry you let me down
EXTD=YEAR: 2007
EXTT0=
EXTT1=
EXTT2=
EXTT3=
EXTT4=
EXTT5=
EXTT6=
EXTT7=
EXTT8=
EXTT9=
EXTT10=
EXTT11=
EXTT12=
EXTT13=
EXTT14=
EXTT15=
EXTT16=
EXTT17=
EXTT18=
EXTT19=
EXTT20=
EXTT21=
EXTT22=
EXTT23=
EXTT24=
EXTT25=
PLAYORDER=
